<?xml version="1.0" encoding="UTF-8" standalone="no"?>
<svg xmlns:xlink="http://www.w3.org/1999/xlink" height="61.0px" width="61.0px" xmlns="http://www.w3.org/2000/svg">
  <g transform="matrix(1.0, 0.0, 0.0, 1.0, 30.5, 30.5)">
    <use height="61.0" transform="matrix(1.0, 0.0, 0.0, 1.0, -30.5, -30.5)" width="61.0" xlink:href="#shape0"/>
  </g>
  <defs>
    <g id="shape0" transform="matrix(1.0, 0.0, 0.0, 1.0, 30.5, 30.5)">
      <path d="M-30.5 -30.5 L30.5 -30.5 30.5 30.5 -30.5 30.5 -30.5 -30.5" fill="#ffffff" fill-opacity="0.0" fill-rule="evenodd" stroke="none"/>
      <path d="M15.0 -17.85 Q21.15 -11.7 21.15 -3.0 L21.15 8.0 21.15 10.6 26.15 14.95 Q27.0 15.65 27.25 16.7 27.5 17.75 27.15 18.8 26.75 19.8 25.85 20.45 24.95 21.05 23.85 21.05 L-23.85 21.05 Q-24.95 21.05 -25.85 20.45 -26.75 19.8 -27.15 18.8 -27.5 17.75 -27.25 16.7 -27.0 15.65 -26.15 14.95 L-21.65 11.0 -21.85 8.0 -21.85 -3.0 Q-21.85 -11.7 -15.7 -17.85 -10.5 -23.05 -3.45 -23.85 L-3.45 -27.05 Q-3.45 -28.3 -2.55 -29.2 -1.65 -30.1 -0.4 -30.1 L-0.25 -30.1 Q1.05 -30.1 1.95 -29.2 2.85 -28.3 2.85 -27.05 L2.85 -23.85 Q9.8 -23.05 15.0 -17.85 M4.15 28.35 Q2.4 30.15 -0.15 30.15 -2.7 30.15 -4.5 28.35 -6.25 26.6 -6.25 24.1 L5.95 24.1 Q5.95 26.6 4.15 28.35" fill="#ffffff" fill-rule="evenodd" stroke="none"/>
    </g>
  </defs>
</svg>
