<?xml version="1.0" encoding="UTF-8" standalone="no"?>
<svg xmlns:xlink="http://www.w3.org/1999/xlink" height="62.5px" width="62.5px" xmlns="http://www.w3.org/2000/svg">
  <g transform="matrix(1.0, 0.0, 0.0, 1.0, 31.25, 31.25)">
    <use height="62.5" transform="matrix(1.0, 0.0, 0.0, 1.0, -31.25, -31.25)" width="62.5" xlink:href="#shape0"/>
  </g>
  <defs>
    <g id="shape0" transform="matrix(1.0, 0.0, 0.0, 1.0, 31.25, 31.25)">
      <path d="M-31.25 -31.25 L31.25 -31.25 31.25 31.25 -31.25 31.25 -31.25 -31.25" fill="#ffffff" fill-opacity="0.0" fill-rule="evenodd" stroke="none"/>
      <path d="M17.95 -27.75 L27.8 -17.9 27.85 -17.9 Q29.35 -16.25 27.9 -14.65 L27.85 -14.65 -14.05 27.3 -15.55 28.25 -17.15 28.6 -17.25 28.6 -27.9 28.6 -28.25 28.45 -28.4 28.1 -28.6 18.95 Q-28.7 15.65 -27.25 14.2 L14.65 -27.8 Q16.25 -29.4 17.95 -27.75 M16.55 -21.15 L13.05 -17.65 12.9 -17.3 Q12.9 -17.1 13.05 -16.95 L17.3 -12.7 17.65 -12.55 18.0 -12.7 21.5 -16.2 21.65 -16.55 21.5 -16.9 17.25 -21.15 16.9 -21.3 16.55 -21.15" fill="#434d56" fill-rule="evenodd" stroke="none"/>
    </g>
  </defs>
</svg>
