<?xml version="1.0" encoding="UTF-8" standalone="no"?>
<svg xmlns:xlink="http://www.w3.org/1999/xlink" height="105.0px" width="105.0px" xmlns="http://www.w3.org/2000/svg">
  <g transform="matrix(1.0, 0.0, 0.0, 1.0, 52.5, 52.5)">
    <use height="105.0" transform="matrix(1.0, 0.0, 0.0, 1.0, -52.5, -52.5)" width="105.0" xlink:href="#shape0"/>
  </g>
  <defs>
    <g id="shape0" transform="matrix(1.0, 0.0, 0.0, 1.0, 52.5, 52.5)">
      <path d="M52.5 0.1 Q52.5 21.95 37.05 37.2 21.7 52.5 -0.05 52.5 -21.7 52.5 -37.3 37.2 -52.5 21.95 -52.5 0.1 -52.5 -21.95 -37.3 -37.15 -21.7 -52.5 -0.05 -52.5 21.7 -52.5 37.05 -37.15 52.5 -21.8 52.5 0.1" fill="#fd7900" fill-rule="evenodd" stroke="none"/>
      <path d="M13.5 -13.7 L9.25 -13.7 9.25 -9.45 13.5 -9.45 13.5 -13.7 M-9.75 -13.7 L-14.0 -13.7 -14.0 -9.45 -9.75 -9.45 -9.75 -13.7 M17.0 -20.7 Q18.45 -20.7 19.5 -19.65 20.5 -18.65 20.5 -17.2 L20.5 -5.95 Q20.5 -4.5 19.5 -3.45 18.45 -2.45 17.0 -2.45 L5.75 -2.45 Q4.3 -2.45 3.3 -3.45 2.25 -4.5 2.25 -5.95 L2.25 -17.2 Q2.25 -18.65 3.3 -19.65 4.3 -20.7 5.75 -20.7 L17.0 -20.7 M-6.25 -20.7 Q-4.8 -20.7 -3.75 -19.65 -2.75 -18.65 -2.75 -17.2 L-2.75 -5.95 Q-2.75 -4.5 -3.75 -3.45 -4.8 -2.45 -6.25 -2.45 L-17.5 -2.45 Q-18.95 -2.45 -19.95 -3.45 -21.0 -4.5 -21.0 -5.95 L-21.0 -17.2 Q-21.0 -18.65 -19.95 -19.65 -18.95 -20.7 -17.5 -20.7 L-6.25 -20.7 M-30.1 -26.1 Q-30.1 -27.55 -29.05 -28.55 -28.05 -29.6 -26.6 -29.6 L-11.7 -29.6 Q-10.25 -29.6 -9.2 -28.55 -8.2 -27.55 -8.2 -26.1 -8.2 -24.65 -9.2 -23.6 -10.25 -22.6 -11.7 -22.6 L-23.1 -22.6 -23.1 -11.75 Q-23.1 -10.3 -24.1 -9.25 -25.15 -8.25 -26.6 -8.25 -28.05 -8.25 -29.05 -9.25 -30.1 -10.3 -30.1 -11.75 L-30.1 -26.1 M30.1 26.1 Q30.1 27.55 29.1 28.6 28.05 29.6 26.6 29.6 L11.3 29.6 Q9.85 29.6 8.85 28.6 7.8 27.55 7.8 26.1 7.8 24.65 8.85 23.65 9.85 22.6 11.3 22.6 L23.1 22.6 23.1 11.75 Q23.1 10.3 24.15 9.3 25.15 8.25 26.6 8.25 28.05 8.25 29.1 9.3 30.1 10.3 30.1 11.75 L30.1 26.1 M26.6 -29.6 Q28.05 -29.6 29.1 -28.55 30.1 -27.55 30.1 -26.1 L30.1 -11.75 Q30.1 -10.3 29.1 -9.25 28.05 -8.25 26.6 -8.25 25.15 -8.25 24.15 -9.25 23.1 -10.3 23.1 -11.75 L23.1 -22.6 11.3 -22.6 Q9.85 -22.6 8.85 -23.6 7.8 -24.65 7.8 -26.1 7.8 -27.55 8.85 -28.55 9.85 -29.6 11.3 -29.6 L26.6 -29.6 M12.1 7.25 Q12.1 9.3 10.65 10.75 9.15 12.25 7.1 12.25 5.05 12.25 3.6 10.75 2.1 9.3 2.1 7.25 2.1 5.2 3.6 3.7 5.05 2.25 7.1 2.25 9.15 2.25 10.65 3.7 12.1 5.2 12.1 7.25 M20.6 15.75 Q20.6 17.8 19.15 19.25 17.65 20.75 15.6 20.75 13.55 20.75 12.1 19.25 10.6 17.8 10.6 15.75 10.6 13.7 12.1 12.2 13.55 10.75 15.6 10.75 17.65 10.75 19.15 12.2 20.6 13.7 20.6 15.75 M-26.6 29.6 Q-28.05 29.6 -29.05 28.6 -30.1 27.55 -30.1 26.1 L-30.1 11.75 Q-30.1 10.3 -29.05 9.3 -28.05 8.25 -26.6 8.25 -25.15 8.25 -24.1 9.3 -23.1 10.3 -23.1 11.75 L-23.1 22.6 -11.7 22.6 Q-10.25 22.6 -9.2 23.65 -8.2 24.65 -8.2 26.1 -8.2 27.55 -9.2 28.6 -10.25 29.6 -11.7 29.6 L-26.6 29.6 M-9.75 9.3 L-14.0 9.3 -14.0 13.55 -9.75 13.55 -9.75 9.3 M-6.25 2.3 Q-4.8 2.3 -3.75 3.35 -2.75 4.35 -2.75 5.8 L-2.75 17.05 Q-2.75 18.5 -3.75 19.55 -4.8 20.55 -6.25 20.55 L-17.5 20.55 Q-18.95 20.55 -19.95 19.55 -21.0 18.5 -21.0 17.05 L-21.0 5.8 Q-21.0 4.35 -19.95 3.35 -18.95 2.3 -17.5 2.3 L-6.25 2.3" fill="#ffffff" fill-rule="evenodd" stroke="none"/>
    </g>
  </defs>
</svg>
