<?xml version="1.0" encoding="UTF-8" standalone="no"?>
<svg xmlns:xlink="http://www.w3.org/1999/xlink" height="17.9px" width="17.9px" xmlns="http://www.w3.org/2000/svg">
  <g transform="matrix(1.0, 0.0, 0.0, 1.0, 8.95, 8.95)">
    <use height="17.9" transform="matrix(1.0, 0.0, 0.0, 1.0, -8.95, -8.95)" width="17.9" xlink:href="#shape0"/>
  </g>
  <defs>
    <g id="shape0" transform="matrix(1.0, 0.0, 0.0, 1.0, 8.95, 8.95)">
      <path d="M8.95 0.0 Q8.95 3.7 6.3 6.3 3.7 8.95 0.0 8.95 -3.7 8.95 -6.35 6.3 -8.95 3.7 -8.95 0.0 -8.95 -3.7 -6.35 -6.35 -3.7 -8.95 0.0 -8.95 3.7 -8.95 6.3 -6.35 8.95 -3.7 8.95 0.0 M0.55 0.8 L0.55 -1.0 0.4 -1.4 -0.05 -1.6 -0.45 -1.4 -0.65 -1.0 -0.65 0.8 -0.45 1.25 -0.05 1.4 0.4 1.25 0.55 0.8 M4.05 0.8 L4.05 -1.0 3.9 -1.4 3.45 -1.6 3.05 -1.4 2.85 -1.0 2.85 0.8 3.05 1.25 3.45 1.4 3.9 1.25 4.05 0.8 M-2.8 0.8 L-2.8 -1.0 -2.95 -1.4 -3.4 -1.6 -3.8 -1.4 -4.0 -1.0 -4.0 0.8 -3.8 1.25 -3.4 1.4 -2.95 1.25 -2.8 0.8" fill="#ffffff" fill-rule="evenodd" stroke="none"/>
    </g>
  </defs>
</svg>
